# xmcd
#
# Track frame offsets:
#	150
#	10792
#	24117
#	41280
#	55222
#	68557
#	81087
#	98392
#
# Disc length: 1468
#
# Revision: 2
# Processed by: cddbd v1.5.1PL0 Copyright (c) Steve Scherf et al.
# Submitted via: AltoMP3_Maker 3.0
# Normalized: r0:TDELIM( - ),TSWAP
#
DISCID=4805ba08
DTITLE=Various Artist - Country's Best
DYEAR=1900
DGENRE=
TTITLE0=Willie Nelson - Blue Eyes Crying In The Rain
TTITLE1=Lynn Anderson - Rose Garden
TTITLE2=Johnny Cash - Ghost Riders In The Sky
TTITLE3=Mac Davis - Baby Don't Get Hooked On Me
TTITLE4=Tanya Tucker - Delta Dawn
TTITLE5=Charlie Rich - The Most Beautiful Girl
TTITLE6=Ray Price - For The Good Times
TTITLE7=Johnny Paycheck - Take This Job And Shove It
EXTD=
EXTT0=
EXTT1=
EXTT2=
EXTT3=
EXTT4=
EXTT5=
EXTT6=
EXTT7=
PLAYORDER=
